<svg xmlns="http://www.w3.org/2000/svg" version="1.1" xmlns:xlink="http://www.w3.org/1999/xlink" xmlns:svgjs="http://svgjs.dev/svgjs" width="2000" height="292" viewBox="0 0 2000 292"><g transform="matrix(1,0,0,1,-1.2121212121212466,-0.2730412988887849)"><svg viewBox="0 0 396 58" data-background-color="#ffffff" preserveAspectRatio="xMidYMid meet" height="292" width="2000" xmlns="http://www.w3.org/2000/svg" xmlns:xlink="http://www.w3.org/1999/xlink"><g id="tight-bounds" transform="matrix(1,0,0,1,0.2400000000000091,0.05423423060119603)"><svg viewBox="0 0 395.52 57.89153153879758" height="57.89153153879758" width="395.52"><g><svg viewBox="0 0 498.29098674947943 72.93393096406264" height="57.89153153879758" width="395.52"><g transform="matrix(1,0,0,1,102.77098674947948,10.079870343079573)"><svg viewBox="0 0 395.52 52.77419027790349" height="52.77419027790349" width="395.52"><g id="textblocktransform"><svg viewBox="0 0 395.52 52.77419027790349" height="52.77419027790349" width="395.52" id="textblock"><g><svg viewBox="0 0 395.52 52.77419027790349" height="52.77419027790349" width="395.52"><g transform="matrix(1,0,0,1,0,0)"><svg width="395.52" viewBox="3.69 -35.49890909090909 269.68 35.98890909090909" height="52.77419027790349" data-palette-color="#ffffff"><path d="M38.67-35.01L38.67-2.71Q38.67-2.03 38.42-1.44 38.16-0.85 37.73-0.43 37.3 0 36.72 0.24 36.13 0.49 35.47 0.49L35.47 0.49Q34.89 0.49 34.29 0.27 33.69 0.05 33.23-0.44L33.23-0.44 10.03-24.66 10.03 0 3.69 0 3.69-32.3Q3.69-33.28 4.24-34.07 4.79-34.86 5.64-35.25L5.64-35.25Q6.54-35.62 7.5-35.44 8.45-35.25 9.13-34.55L9.13-34.55 32.32-10.35 32.32-35.01 38.67-35.01ZM74.83-20.7L74.83-14.31 54.78-14.31 54.78-20.7 74.83-20.7ZM77.68-6.35L77.68 0 54.78 0Q53.46 0 51.9-0.46 50.34-0.93 49.01-1.99 47.68-3.05 46.79-4.75 45.9-6.45 45.9-8.91L45.9-8.91 45.9-31.81Q45.9-32.47 46.14-33.06 46.38-33.64 46.81-34.08 47.24-34.52 47.82-34.77 48.41-35.01 49.09-35.01L49.09-35.01 77.68-35.01 77.68-28.66 52.24-28.66 52.24-8.91Q52.24-7.67 52.9-7.01 53.56-6.35 54.83-6.35L54.83-6.35 77.68-6.35ZM89.11-35.01L99.8-22.51 110.49-35.01 119.16-35.01 104.1-17.46 119.06 0 110.44 0 99.8-12.4 89.2 0 80.56 0 95.5-17.46 80.51-35.01 89.11-35.01ZM154.8-35.01L154.8-28.66 140.81-28.66 140.81 0 134.47 0 134.47-28.66 120.45-28.66 120.45-35.01 154.8-35.01ZM194.01-17.5L194.01-3.2Q194.01-2.51 193.76-1.93 193.52-1.34 193.09-0.92 192.67-0.49 192.08-0.24 191.49 0 190.81 0L190.81 0 167.91 0Q167.03 0 166.02-0.21 165-0.42 164.02-0.85 163.03-1.29 162.12-1.99 161.22-2.69 160.52-3.67 159.83-4.66 159.41-5.97 159-7.28 159-8.91L159-8.91 159-26.1Q159-26.98 159.21-27.99 159.41-29 159.85-29.99 160.29-30.98 161-31.88 161.71-32.79 162.7-33.48 163.69-34.18 164.98-34.59 166.27-35.01 167.91-35.01L167.91-35.01 193.72-35.01 193.72-28.66 167.91-28.66Q166.66-28.66 166.01-28 165.35-27.34 165.35-26.05L165.35-26.05 165.35-8.91Q165.35-7.69 166.02-7.02 166.69-6.35 167.91-6.35L167.91-6.35 187.66-6.35 187.66-14.31 170.77-14.31 170.77-20.7 190.81-20.7Q191.49-20.7 192.08-20.45 192.67-20.19 193.09-19.75 193.52-19.31 193.76-18.74 194.01-18.16 194.01-17.5L194.01-17.5ZM229.41-20.7L229.41-14.31 209.36-14.31 209.36-20.7 229.41-20.7ZM232.26-6.35L232.26 0 209.36 0Q208.04 0 206.48-0.46 204.92-0.93 203.59-1.99 202.26-3.05 201.37-4.75 200.48-6.45 200.48-8.91L200.48-8.91 200.48-31.81Q200.48-32.47 200.72-33.06 200.96-33.64 201.39-34.08 201.82-34.52 202.4-34.77 202.99-35.01 203.67-35.01L203.67-35.01 232.26-35.01 232.26-28.66 206.82-28.66 206.82-8.91Q206.82-7.67 207.48-7.01 208.14-6.35 209.41-6.35L209.41-6.35 232.26-6.35ZM273.37-35.01L273.37-2.71Q273.37-2.03 273.12-1.44 272.86-0.85 272.43-0.43 272.01 0 271.42 0.24 270.83 0.49 270.18 0.49L270.18 0.49Q269.59 0.49 268.99 0.27 268.39 0.05 267.93-0.44L267.93-0.44 244.74-24.66 244.74 0 238.39 0 238.39-32.3Q238.39-33.28 238.94-34.07 239.49-34.86 240.34-35.25L240.34-35.25Q241.24-35.62 242.2-35.44 243.15-35.25 243.83-34.55L243.83-34.55 267.03-10.35 267.03-35.01 273.37-35.01Z" opacity="1" transform="matrix(1,0,0,1,0,0)" fill="#ffffff" class="wordmark-text-0" data-fill-palette-color="primary" id="text-0"></path></svg></g></svg></g></svg></g></svg></g><g><svg viewBox="0 0 90.31226700543313 72.93393096406264" height="72.93393096406264" width="90.31226700543313"><g><svg xmlns="http://www.w3.org/2000/svg" xmlns:xlink="http://www.w3.org/1999/xlink" version="1.1" x="0" y="0" viewBox="1.63 13.938 96.739 78.12399999999998" enable-background="new 0 0 100 100" xml:space="preserve" height="72.93393096406264" width="90.31226700543313" class="icon-icon-0" data-fill-palette-color="accent" id="icon-0"><polygon points="42.021,89.823 98.369,53.589 82.566,61.219 82.574,61.292 82.527,61.238 82.264,61.365 82.281,61.389 " fill="#003c98" data-fill-palette-color="accent"></polygon><polygon points="79.395,61.174 38.895,57.391 36.811,91.25 " fill="#003c98" data-fill-palette-color="accent"></polygon><polygon points="3.71,38.712 34.918,92.062 37.066,57.146 " fill="#003c98" data-fill-palette-color="accent"></polygon><polygon points="95.209,45.172 80.775,27.29 79.232,32.516 95.928,46.175 " fill="#003c98" data-fill-palette-color="accent"></polygon><polygon points="98.135,50.979 79.758,35.645 82.281,58.632 " fill="#003c98" data-fill-palette-color="accent"></polygon><polygon points="61.512,33.498 79.758,54.504 77.424,33.356 " fill="#003c98" data-fill-palette-color="accent"></polygon><polygon points="59.756,34.836 39.467,54.979 80.432,58.808 " fill="#003c98" data-fill-palette-color="accent"></polygon><polygon points="58.445,33.191 36.674,27.365 38.974,52.971 " fill="#003c98" data-fill-palette-color="accent"></polygon><polygon points="37.133,54.393 34.822,28.537 6.776,37.639 " fill="#003c98" data-fill-palette-color="accent"></polygon><polygon points="8.923,35.031 34.527,26.292 25.659,19.867 " fill="#003c98" data-fill-palette-color="accent"></polygon><polygon points="1.63,26.184 3.25,37.485 20.957,21.022 " fill="#003c98" data-fill-palette-color="accent"></polygon><polygon points="28.355,14.604 7.837,21.987 26.101,17.109 " fill="#003c98" data-fill-palette-color="accent"></polygon><polygon points="36.751,24.86 60.131,31.196 77.148,30.907 78.672,25.749 67.951,19.853 48.173,14.486 32.256,13.938 28.073,18.586   " fill="#003c98" data-fill-palette-color="accent"></polygon></svg></g></svg></g></svg></g><defs></defs></svg><rect width="395.52" height="57.89153153879758" fill="none" stroke="none" visibility="hidden"></rect></g></svg></g></svg>