<svg width="135" height="14" viewBox="0 0 135 14" fill="none" xmlns="http://www.w3.org/2000/svg">
<path d="M7.574 2.57L4.858 11.054L2.142 2.57H0.182L3.668 13H6.048L9.534 2.57H7.574ZM13.1927 13H14.9567V2.57H13.1927V13ZM23.1568 13.168C25.3688 13.168 26.8668 11.95 26.8668 10.144C26.8668 8.744 25.9848 7.82 24.2628 7.288L22.2888 6.686C21.4488 6.434 21.0008 5.958 21.0008 5.314C21.0008 4.516 21.7288 3.956 22.8208 3.956C24.0108 3.956 24.9068 4.586 25.2848 5.692L26.8108 4.992C26.2788 3.522 24.7808 2.402 22.8068 2.402C20.6788 2.402 19.2228 3.62 19.2228 5.398C19.2228 6.742 20.0628 7.778 21.7848 8.296L23.8288 8.926C24.6548 9.178 25.0888 9.556 25.0888 10.27C25.0888 11.04 24.3328 11.614 23.1568 11.614C21.9668 11.614 20.8888 10.9 20.3988 9.598L18.8868 10.284C19.4188 11.964 21.0988 13.168 23.1568 13.168ZM30.8518 13H32.6158V2.57H30.8518V13ZM42.0899 13.168C45.1559 13.168 47.5079 10.872 47.5079 7.778C47.5079 4.684 45.1559 2.402 42.0899 2.402C39.0239 2.402 36.6859 4.684 36.6859 7.778C36.6859 10.872 39.0379 13.168 42.0899 13.168ZM42.0899 11.544C40.0039 11.544 38.4499 9.934 38.4499 7.778C38.4499 5.636 39.9899 4.026 42.0899 4.026C44.1899 4.026 45.7299 5.636 45.7299 7.778C45.7299 9.934 44.1899 11.544 42.0899 11.544ZM58.0832 2.57V9.584L52.9872 2.57H51.5872V13H53.3512V5.916L58.4472 13H59.8612V2.57H58.0832ZM75.5743 2.57V9.304C75.5743 10.634 74.6363 11.572 73.3063 11.572C71.9623 11.572 71.0243 10.648 71.0243 9.304V2.57H69.2463V9.304C69.2463 11.544 70.8563 13.168 73.3063 13.168C75.7423 13.168 77.3663 11.544 77.3663 9.304V2.57H75.5743ZM81.7741 13H83.5381V2.57H81.7741V13ZM92.9391 13H94.7031V8.716H99.3791V7.176H94.7031V4.124H99.9111V2.57H92.9391V13ZM103.772 13H105.536V9.108H107.692L109.89 13H111.906L109.498 8.8C110.688 8.324 111.43 7.288 111.43 5.846C111.43 3.774 109.932 2.57 107.79 2.57H103.772V13ZM105.536 7.568V4.124H107.79C108.896 4.124 109.638 4.81 109.638 5.846C109.638 6.882 108.896 7.568 107.79 7.568H105.536ZM115.821 13H122.709L122.723 11.446H117.585V8.548H122.443V6.994H117.585V4.124H122.723V2.57H115.821V13ZM126.858 13H133.746L133.76 11.446H128.622V8.548H133.48V6.994H128.622V4.124H133.76V2.57H126.858V13Z" fill="url(#paint0_linear_580_2514)"/>
<defs>
<linearGradient id="paint0_linear_580_2514" x1="103.279" y1="4" x2="124.185" y2="31.9291" gradientUnits="userSpaceOnUse">
<stop stop-color="white"/>
<stop offset="1" stop-color="#757A8C" stop-opacity="0"/>
</linearGradient>
</defs>
</svg>
