<svg width="47.940063" height="45.000000" viewBox="0 0 47.9401 45" fill="none" xmlns="http://www.w3.org/2000/svg" xmlns:xlink="http://www.w3.org/1999/xlink">
	<desc>
			Created with Pixso.
	</desc>
	<defs>
		<clipPath id="clip195_418">
			<rect width="47.940075" height="45.000000" fill="white" fill-opacity="0"/>
		</clipPath>
	</defs>
	<rect width="47.940075" height="45.000000" fill="#FFFFFF" fill-opacity="0"/>
	<g clip-path="url(#clip195_418)">
		<path d="M23.6 0.05C24.42 -0.2 25.34 0.47 25.37 1.33C25.38 2.9 25.37 4.46 25.37 6.03C25.39 6.68 24.89 7.3 24.26 7.42C23.45 7.62 22.59 6.95 22.57 6.13C22.56 4.56 22.57 3 22.56 1.44C22.54 0.8 22.99 0.21 23.6 0.05Z" fill="#DF2DB1" fill-opacity="1.000000" fill-rule="nonzero"/>
		<path d="M13.31 3.33C13.79 3.2 14.33 3.35 14.68 3.7C15.89 4.92 17.11 6.14 18.33 7.35C18.71 7.69 18.91 8.23 18.79 8.74C18.67 9.28 18.21 9.71 17.66 9.81C17.22 9.88 16.76 9.74 16.44 9.43C15.2 8.2 13.97 6.96 12.74 5.73C12.41 5.43 12.22 4.97 12.28 4.52C12.34 3.96 12.76 3.46 13.31 3.33Z" fill="#DF2DB1" fill-opacity="1.000000" fill-rule="nonzero"/>
		<path d="M33.9 3.33C34.51 3.16 35.22 3.45 35.5 4.03C35.79 4.56 35.68 5.27 35.24 5.69C33.99 6.93 32.75 8.19 31.49 9.43C30.99 9.94 30.11 9.97 29.58 9.48C28.99 8.98 28.96 7.99 29.52 7.45C30.76 6.2 32.01 4.96 33.25 3.7C33.43 3.52 33.66 3.39 33.9 3.33Z" fill="#DF2DB1" fill-opacity="1.000000" fill-rule="nonzero"/>
		<path d="M13.57 14.56C14.96 13.41 16.74 12.77 18.53 12.76C21.32 12.76 24.1 12.76 26.87 12.76C28.04 12.72 29.22 13.01 30.2 13.66C30.76 14.01 31.23 14.5 31.7 14.97C33.23 16.49 34.76 18.03 36.29 19.56C36.65 19.91 37.02 20.29 37.22 20.77C37.83 22.05 37.46 23.7 36.34 24.57C35.14 25.58 33.23 25.46 32.12 24.39C30.78 23.07 29.47 21.73 28.14 20.41C27.86 20.13 27.47 19.98 27.07 19.98C23.54 19.97 20.01 19.98 16.48 19.98C14.96 21.26 13.43 22.54 11.9 23.82C11.32 24.31 10.73 24.76 10.27 25.36C8.96 27.01 8.64 29.38 9.45 31.32C10.1 32.91 11.47 34.17 13.1 34.7C13.24 35.56 13.54 36.38 14 37.11C13.27 37.06 12.4 37.3 11.8 36.75C10.66 35.63 9.55 34.49 8.41 33.37C6.26 33.36 4.11 33.37 1.96 33.37C1.58 33.37 1.17 33.4 0.8 33.23C0.36 33.01 0.08 32.58 0 32.11L0 16.81C0.08 16.12 0.7 15.55 1.4 15.56C5.11 15.56 8.82 15.56 12.52 15.56C12.86 15.22 13.2 14.87 13.57 14.56Z" fill="#F6F6F7" fill-opacity="1.000000" fill-rule="nonzero"/>
		<path d="M39.1 18.47C41.58 18.47 44.05 18.47 46.53 18.47C47.21 18.45 47.8 19 47.94 19.67L47.94 35.01C47.84 35.7 47.23 36.27 46.54 36.26C44.67 36.27 42.79 36.26 40.92 36.26C40.73 36.27 40.5 36.21 40.36 36.37C37.24 38.99 34.11 41.61 31 44.23C30.23 44.89 29.14 45.15 28.16 44.9C26.95 44.61 25.99 43.56 25.81 42.34C25.64 41.39 25.98 40.41 26.6 39.69C25.98 40.17 25.39 40.7 24.78 41.19C24.08 41.8 23.1 42.07 22.2 41.91C20.97 41.73 19.93 40.74 19.65 39.55C19.38 38.48 19.72 37.3 20.51 36.54C19.83 36.99 18.98 37.22 18.16 37.08C16.89 36.9 15.8 35.86 15.56 34.58C15.34 33.53 15.71 32.4 16.47 31.67C15.67 32.23 14.62 32.45 13.67 32.15C12.41 31.78 11.47 30.57 11.43 29.26C11.38 28.27 11.83 27.29 12.6 26.67C14.15 25.39 15.67 24.07 17.23 22.8C20.34 22.79 23.45 22.79 26.56 22.8C27.53 23.8 28.53 24.78 29.51 25.76C29.92 26.17 30.3 26.6 30.77 26.93C31.85 27.74 33.21 28.15 34.55 28.09C35.83 28.06 37.07 27.59 38.07 26.79C39.26 25.84 40.08 24.4 40.27 22.87C40.47 21.32 40.03 19.71 39.1 18.47Z" fill="#F6F6F7" fill-opacity="1.000000" fill-rule="nonzero"/>
	</g>
</svg>
