<svg width="34.286133" height="45.000000" viewBox="0 0 34.2861 45" fill="none" xmlns="http://www.w3.org/2000/svg" xmlns:xlink="http://www.w3.org/1999/xlink">
	<desc>
			Created with Pixso.
	</desc>
	<defs>
		<clipPath id="clip195_345">
			<rect id="icon" width="34.286133" height="45.000000" fill="white" fill-opacity="0"/>
		</clipPath>
	</defs>
	<rect id="icon" width="34.286133" height="45.000000" fill="#FFFFFF" fill-opacity="0"/>
	<g clip-path="url(#clip195_345)">
		<path id="Vector" d="M1.14 0L25.18 0C25.83 0.07 26.37 0.65 26.36 1.3C26.37 12.62 26.36 23.93 26.36 35.24C26.35 35.6 26.41 36 26.23 36.33C26.01 36.81 25.48 37.11 24.96 37.08C17.07 37.08 9.19 37.08 1.3 37.08C0.6 37.09 -0.02 36.47 -0.01 35.78C-0.01 24.46 -0.01 13.15 -0.01 1.84C0 1.47 -0.05 1.08 0.13 0.74C0.31 0.35 0.72 0.08 1.14 0ZM5.03 6.7C4.29 6.82 3.77 7.65 4.01 8.37C4.16 8.92 4.71 9.32 5.27 9.31C7.91 9.31 10.54 9.31 13.18 9.31C13.88 9.33 14.51 8.7 14.5 7.99C14.51 7.29 13.88 6.66 13.18 6.67C10.57 6.67 7.97 6.67 5.36 6.67C5.25 6.67 5.14 6.68 5.03 6.7ZM5.02 11.97C4.35 12.09 3.85 12.78 3.97 13.45C4.05 14.08 4.64 14.59 5.27 14.58C10.39 14.58 15.53 14.58 20.65 14.58C20.97 14.58 21.3 14.61 21.6 14.48C22.2 14.24 22.56 13.51 22.35 12.9C22.2 12.35 21.66 11.95 21.09 11.96C15.96 11.96 10.83 11.96 5.71 11.96C5.48 11.95 5.25 11.94 5.02 11.97ZM5.02 17.25C4.26 17.38 3.74 18.26 4.03 18.98C4.2 19.5 4.72 19.86 5.27 19.86C10.52 19.86 15.76 19.86 21 19.86C21.46 19.88 21.92 19.66 22.18 19.28C22.47 18.87 22.48 18.29 22.21 17.86C21.97 17.44 21.48 17.2 21 17.22C15.93 17.22 10.86 17.22 5.8 17.22C5.54 17.22 5.28 17.2 5.02 17.25ZM5.02 22.52C4.35 22.64 3.85 23.33 3.97 24.01C4.05 24.64 4.64 25.14 5.27 25.13C10.52 25.13 15.75 25.13 21 25.13C21.53 25.16 22.06 24.86 22.28 24.38C22.53 23.87 22.39 23.21 21.97 22.84C21.69 22.57 21.29 22.47 20.91 22.5C15.88 22.5 10.83 22.5 5.8 22.5C5.54 22.5 5.28 22.48 5.02 22.52ZM15.57 27.79C14.9 27.91 14.4 28.6 14.51 29.27C14.59 29.9 15.18 30.41 15.82 30.41C17.55 30.41 19.28 30.41 21 30.41C21.74 30.46 22.42 29.83 22.42 29.09C22.42 28.39 21.81 27.76 21.11 27.77C19.4 27.77 17.7 27.77 16 27.77C15.85 27.77 15.71 27.77 15.57 27.79Z" fill="#F6F6F7" fill-opacity="1.000000" fill-rule="nonzero"/>
		<path id="Vector" d="M29 7.99C30.32 7.99 31.64 7.99 32.96 7.99C33.66 7.98 34.28 8.61 34.27 9.3C34.28 20.74 34.27 32.16 34.27 43.6C34.32 44.28 33.77 44.92 33.09 45L9.1 45C8.45 44.92 7.91 44.34 7.91 43.69C7.91 42.37 7.91 41.05 7.91 39.72C13.54 39.72 19.16 39.72 24.79 39.72C25.38 39.73 25.98 39.66 26.52 39.43C27.99 38.86 29.03 37.34 29.01 35.76C29.01 26.5 29 17.25 29 7.99Z" fill="#41E88D" fill-opacity="1.000000" fill-rule="nonzero"/>
	</g>
</svg>
