<svg width="47.257385" height="45.000000" viewBox="0 0 47.2574 45" fill="none" xmlns="http://www.w3.org/2000/svg" xmlns:xlink="http://www.w3.org/1999/xlink">
	<desc>
			Created with Pixso.
	</desc>
	<defs>
		<clipPath id="clip195_328">
			<rect width="47.257385" height="45.000000" fill="white" fill-opacity="0"/>
		</clipPath>
	</defs>
	<rect width="47.257385" height="45.000000" fill="#FFFFFF" fill-opacity="0"/>
	<g clip-path="url(#clip195_328)">
		<path d="M11.44 0.11C12.64 -0.04 13.87 0.01 15.08 0C21.38 0 27.66 0 33.96 0C35.54 0.01 37.14 -0.07 38.71 0.2C40.61 0.49 42.5 1.2 43.96 2.48C45.35 3.7 46.28 5.39 46.76 7.17C47.13 8.55 47.25 10 47.25 11.42C47.25 16.27 47.25 21.12 47.25 25.99C47.28 27.84 47.2 29.72 46.64 31.49C46.07 33.38 44.93 35.13 43.31 36.27C41.27 37.72 38.74 38.21 36.28 38.24C33.51 38.25 30.72 38.24 27.95 38.24C26.93 38.27 25.97 37.5 25.77 36.49C25.67 36.09 25.74 35.68 25.79 35.27C26.1 32.4 25.52 29.44 24.17 26.88C22.58 23.83 19.87 21.41 16.67 20.14C13.15 18.73 9.07 18.76 5.58 20.26C4.96 20.55 4.24 20.62 3.6 20.34C2.79 20.01 2.22 19.15 2.24 18.27C2.24 15.84 2.24 13.4 2.24 10.98C2.27 8.67 2.7 6.27 3.96 4.3C5 2.65 6.63 1.42 8.45 0.78C9.41 0.45 10.43 0.23 11.44 0.11ZM12.9 9.67C12.31 9.89 11.86 10.46 11.82 11.09C11.77 11.65 12.02 12.22 12.45 12.57C14.74 14.39 17.02 16.23 19.31 18.05C20.44 18.95 21.78 19.57 23.2 19.83C25.21 20.2 27.34 19.83 29.11 18.8C29.9 18.36 30.59 17.75 31.29 17.19C33.04 15.78 34.82 14.38 36.57 12.97C36.89 12.71 37.26 12.46 37.47 12.08C37.83 11.45 37.74 10.6 37.22 10.08C36.66 9.48 35.64 9.39 34.98 9.91C32.72 11.73 30.45 13.54 28.18 15.35C27.51 15.91 26.69 16.3 25.84 16.48C24.33 16.8 22.7 16.43 21.48 15.48C19.17 13.63 16.87 11.8 14.56 9.95C14.1 9.56 13.44 9.46 12.9 9.67Z" fill="#F6F6F7" fill-opacity="1.000000" fill-rule="nonzero"/>
		<path d="M9.86 22.59C12.13 22.31 14.49 22.73 16.5 23.81C19.17 25.22 21.22 27.73 22.05 30.63C22.78 33.13 22.6 35.87 21.55 38.25C20.5 40.68 18.56 42.7 16.19 43.86C13.8 45.03 11 45.31 8.42 44.64C5.83 43.97 3.49 42.35 1.97 40.12C0.35 37.8 -0.32 34.87 0.11 32.08C0.47 29.62 1.68 27.29 3.5 25.59C5.24 23.95 7.49 22.89 9.86 22.59ZM6.56 29.16C5.75 29.18 5.07 29.93 5.11 30.73C5.11 31.54 5.84 32.24 6.64 32.22C8.12 32.23 9.58 32.22 11.06 32.22C11.39 32.22 11.74 32.18 12.02 32.01C12.64 31.66 12.94 30.86 12.7 30.18C12.48 29.56 11.84 29.13 11.19 29.15C9.65 29.16 8.1 29.14 6.56 29.16ZM6.56 35.29C6.07 35.31 5.62 35.58 5.35 35.99C4.99 36.51 5.03 37.25 5.42 37.75C5.72 38.16 6.23 38.37 6.74 38.35C9.58 38.35 12.43 38.35 15.29 38.35C15.7 38.35 16.13 38.38 16.51 38.18C17.19 37.86 17.54 37.01 17.28 36.31C17.08 35.7 16.46 35.27 15.82 35.28C12.74 35.29 9.65 35.28 6.56 35.29Z" fill="#2D55FB" fill-opacity="1.000000" fill-rule="nonzero"/>
	</g>
</svg>
