<svg width="45.000000" height="45.000000" viewBox="0 0 45 45" fill="none" xmlns="http://www.w3.org/2000/svg" xmlns:xlink="http://www.w3.org/1999/xlink">
	<desc>
			Created with Pixso.
	</desc>
	<defs>
		<clipPath id="clip195_334">
			<rect width="45.000000" height="45.000000" fill="white" fill-opacity="0"/>
		</clipPath>
	</defs>
	<rect width="45.000000" height="45.000000" fill="#FFFFFF" fill-opacity="0"/>
	<g clip-path="url(#clip195_334)">
		<path d="M14.24 0L30.7 0C31.52 0.07 32.32 0.43 32.87 1.05C33.45 1.66 33.76 2.5 33.75 3.34C33.75 5.98 33.75 8.62 33.75 11.25C33.75 11.73 33.75 12.22 33.6 12.68C33.23 13.99 31.96 14.97 30.59 15.01C29.2 15.02 27.81 15.01 26.42 15.01C25.46 16.1 24.51 17.2 23.54 18.29C23 18.93 21.92 18.91 21.41 18.25C20.6 17.18 19.79 16.09 18.98 15.01C17.46 15 15.93 15.02 14.4 15C13.04 14.96 11.77 13.99 11.39 12.68C11.24 12.25 11.24 11.79 11.24 11.34C11.24 8.64 11.24 5.95 11.24 3.26C11.24 2.36 11.64 1.48 12.3 0.87C12.83 0.37 13.52 0.08 14.24 0Z" fill="#F6F6F7" fill-opacity="1.000000" fill-rule="nonzero"/>
		<path d="M0.19 4.05C0.62 2.82 1.85 1.9 3.16 1.88C4.98 1.87 6.8 1.88 8.61 1.87C8.49 2.35 8.42 2.84 8.43 3.33C8.43 6.17 8.42 9.02 8.44 11.86C8.47 13.91 9.64 15.85 11.36 16.93C10.41 18.02 9.46 19.11 8.5 20.19C7.98 20.81 6.93 20.75 6.43 20.12C5.6 19.05 4.79 17.95 3.97 16.87C3.25 16.9 2.49 16.88 1.83 16.53C0.81 16.04 0.12 15 0 13.87L0 4.88C0.04 4.6 0.09 4.32 0.19 4.05Z" fill="#FFC933" fill-opacity="1.000000" fill-rule="nonzero"/>
		<path d="M36.37 1.87C38.17 1.87 39.95 1.87 41.74 1.87C42.74 1.87 43.7 2.36 44.3 3.15C44.71 3.67 44.93 4.31 44.99 4.96L44.99 13.85C44.86 15.12 43.98 16.28 42.76 16.69C42.19 16.9 41.58 16.86 40.98 16.87C40.21 17.92 39.41 18.96 38.63 20.02C38.28 20.52 37.59 20.75 37.01 20.54C36.63 20.42 36.39 20.09 36.14 19.81C35.3 18.85 34.46 17.88 33.61 16.92C34.98 16.06 36.01 14.66 36.37 13.08C36.58 12.27 36.53 11.44 36.53 10.62C36.53 8.2 36.53 5.76 36.53 3.33C36.56 2.84 36.5 2.35 36.37 1.87Z" fill="#FFC933" fill-opacity="1.000000" fill-rule="nonzero"/>
		<path d="M22.08 21.57C23.2 21.49 24.33 21.75 25.3 22.31C26.63 23.08 27.63 24.42 27.97 25.92C28.23 27.02 28.14 28.19 27.72 29.24C27.14 30.73 25.89 31.95 24.37 32.49C23.4 32.83 22.34 32.9 21.33 32.69C19.81 32.37 18.44 31.39 17.65 30.05C17.05 29.05 16.78 27.87 16.89 26.7C16.99 25.39 17.58 24.12 18.53 23.2C19.47 22.25 20.75 21.66 22.08 21.57Z" fill="#F6F6F7" fill-opacity="1.000000" fill-rule="nonzero"/>
		<path d="M7.14 24.38C8.23 24.28 9.36 24.67 10.13 25.45C10.9 26.2 11.32 27.3 11.24 28.38C11.17 29.37 10.69 30.31 9.95 30.95C9.14 31.66 8.01 31.99 6.95 31.82C5.86 31.67 4.86 30.99 4.29 30.05C3.73 29.14 3.6 27.97 3.94 26.95C4.37 25.56 5.69 24.51 7.14 24.38Z" fill="#F6F6F7" fill-opacity="1.000000" fill-rule="nonzero"/>
		<path d="M37.12 24.39C38.13 24.3 39.17 24.61 39.93 25.28C40.75 25.98 41.24 27.05 41.24 28.13C41.25 29.25 40.71 30.36 39.84 31.06C39 31.73 37.87 32.01 36.81 31.81C35.75 31.62 34.78 30.94 34.25 30C33.71 29.08 33.6 27.93 33.95 26.92C34.4 25.55 35.69 24.52 37.12 24.39Z" fill="#F6F6F7" fill-opacity="1.000000" fill-rule="nonzero"/>
		<path d="M2.07 34.77C2.96 34.11 4.07 33.74 5.18 33.75C6.74 33.75 8.28 33.75 9.84 33.75C10.77 33.75 11.7 34.01 12.5 34.49C11.61 35.18 10.86 36.04 10.32 37.03C9.62 38.32 9.32 39.79 9.37 41.24C6.72 41.24 4.06 41.24 1.4 41.24C0.71 41.25 0.09 40.68 0 40L0 38.62C0.08 37.12 0.85 35.67 2.07 34.77Z" fill="#F6F6F7" fill-opacity="1.000000" fill-rule="nonzero"/>
		<path d="M32.49 34.49C33.29 34.01 34.22 33.75 35.15 33.75C36.71 33.75 38.25 33.75 39.8 33.75C41.16 33.74 42.53 34.29 43.48 35.26C44.38 36.14 44.92 37.37 45 38.62L45 39.99C44.92 40.44 44.65 40.86 44.24 41.08C43.89 41.29 43.46 41.24 43.06 41.25C40.58 41.25 38.1 41.25 35.63 41.25C35.63 40.5 35.6 39.76 35.42 39.03C35.02 37.23 33.96 35.6 32.49 34.49Z" fill="#F6F6F7" fill-opacity="1.000000" fill-rule="nonzero"/>
		<path d="M15.75 35.87C16.68 35.54 17.67 35.63 18.64 35.62C21.62 35.62 24.61 35.62 27.6 35.62C28.68 35.61 29.76 35.94 30.64 36.58C31.66 37.3 32.4 38.4 32.67 39.62C32.86 40.37 32.8 41.15 32.8 41.91C32.8 42.5 32.81 43.08 32.8 43.67C32.78 44.34 32.22 44.9 31.57 44.99L13.44 44.99C12.76 44.9 12.17 44.28 12.19 43.58C12.19 42.55 12.18 41.53 12.19 40.5C12.27 38.43 13.76 36.5 15.75 35.87Z" fill="#F6F6F7" fill-opacity="1.000000" fill-rule="nonzero"/>
	</g>
</svg>
