<svg width="48.337769" height="41.006897" viewBox="0 0 48.3378 41.0069" fill="none" xmlns="http://www.w3.org/2000/svg" xmlns:xlink="http://www.w3.org/1999/xlink">
	<desc>
			Created with Pixso.
	</desc>
	<defs/>
	<path id="Vector" d="M23 0.08C24.62 -0.15 26.31 0.1 27.79 0.82C29.75 1.76 31.32 3.48 32.05 5.53C32.99 8.06 32.58 11.06 30.99 13.24C29.57 15.27 27.2 16.6 24.73 16.74C22.26 16.93 19.75 15.93 18.07 14.13C16.97 12.97 16.22 11.5 15.93 9.93C15.54 7.91 15.93 5.75 17.02 4C18.3 1.89 20.55 0.4 23 0.08Z" fill="#FFFFFF" fill-opacity="1.000000" fill-rule="nonzero"/>
	<path id="Vector" d="M8.61 7.87C10.01 7.68 11.49 7.99 12.71 8.73C13.87 9.44 14.78 10.54 15.28 11.81C15.81 13.16 15.85 14.69 15.39 16.06C14.75 18 13.11 19.57 11.15 20.12C9.66 20.55 8.02 20.4 6.64 19.71C5.29 19.04 4.21 17.87 3.64 16.48C3.09 15.16 3.02 13.65 3.43 12.29C4.09 9.96 6.21 8.15 8.61 7.87Z" fill="#B756FE" fill-opacity="1.000000" fill-rule="nonzero"/>
	<path id="Vector" d="M38.15 7.86C39.51 7.7 40.93 7.98 42.11 8.69C43.3 9.4 44.25 10.51 44.75 11.8C45.33 13.27 45.33 14.95 44.74 16.4C44.18 17.83 43.07 19.02 41.7 19.7C40.7 20.21 39.55 20.42 38.44 20.34C36.45 20.21 34.58 19.04 33.56 17.34C32.22 15.24 32.37 12.34 33.87 10.37C34.87 8.98 36.45 8.05 38.15 7.86Z" fill="#B756FE" fill-opacity="1.000000" fill-rule="nonzero"/>
	<path id="Vector" d="M19.17 18.53C19.83 18.47 20.49 18.49 21.14 18.49C23.56 18.49 25.98 18.49 28.41 18.49C30.09 18.48 31.76 19.1 33.03 20.22C34.22 21.26 35.05 22.7 35.3 24.26C35.44 25 35.41 25.77 35.41 26.53C35.41 30.88 35.41 35.21 35.41 39.56C35.43 40.09 35.11 40.63 34.61 40.86C34.27 41.03 33.88 40.99 33.51 41C27.11 41 20.73 41 14.34 41C13.56 41.04 12.87 40.34 12.91 39.57C12.91 34.88 12.91 30.19 12.91 25.5C12.91 23.98 13.41 22.46 14.34 21.26C15.49 19.73 17.28 18.72 19.17 18.53Z" fill="#FFFFFF" fill-opacity="1.000000" fill-rule="nonzero"/>
	<path id="Vector" d="M2.26 23.98C3.49 22.83 5.13 22.17 6.8 22.13C8.11 22.11 9.41 22.12 10.71 22.12C10.3 23.3 10.11 24.53 10.12 25.78C10.12 29.91 10.12 34.02 10.12 38.15C10.13 39.1 10.04 40.08 10.35 40.99C8.72 40.99 7.1 40.99 5.46 40.99C4.77 40.98 4.08 41.02 3.39 40.91C2.61 40.75 1.88 40.39 1.3 39.84C0.5 39.08 0.04 37.99 0 36.87L0 28.93C0.05 27.06 0.87 25.23 2.26 23.98Z" fill="#B756FE" fill-opacity="1.000000" fill-rule="nonzero"/>
	<path id="Vector" d="M37.62 22.12C38.78 22.11 39.93 22.12 41.07 22.12C41.77 22.12 42.48 22.18 43.15 22.36C44.67 22.76 46.04 23.7 46.97 24.97C47.82 26.11 48.3 27.51 48.33 28.93L48.33 36.87C48.29 37.51 48.16 38.15 47.86 38.72C47.28 39.87 46.12 40.72 44.85 40.92C44.19 41.03 43.53 40.99 42.86 41C41.22 41 39.6 41 37.96 41C38.13 40.48 38.21 39.93 38.2 39.39C38.2 34.79 38.2 30.19 38.2 25.6C38.22 24.41 38.01 23.24 37.62 22.12Z" fill="#B756FE" fill-opacity="1.000000" fill-rule="nonzero"/>
</svg>
