<svg width="45.000000" height="45.000000" viewBox="0 0 45 45" fill="none" xmlns="http://www.w3.org/2000/svg" xmlns:xlink="http://www.w3.org/1999/xlink">
	<desc>
			Created with Pixso.
	</desc>
	<defs>
		<clipPath id="clip195_411">
			<rect width="45.000000" height="45.000000" fill="white" fill-opacity="0"/>
		</clipPath>
	</defs>
	<rect width="45.000000" height="45.000000" fill="#FFFFFF" fill-opacity="0"/>
	<g clip-path="url(#clip195_411)">
		<path d="M37.05 0L45 0L45 13.23C42.35 13.22 39.7 13.24 37.05 13.22C37.06 8.82 37.05 4.41 37.05 0Z" fill="#32CAFD" fill-opacity="1.000000" fill-rule="nonzero"/>
		<path d="M3.33 6.84C5.25 5.01 7.88 3.97 10.53 3.97C18.49 3.97 26.45 3.97 34.4 3.97C34.4 5.73 34.4 7.49 34.4 9.26C26.69 9.26 18.97 9.26 11.25 9.26C10.84 9.26 10.43 9.25 10.02 9.29C8.84 9.42 7.69 9.95 6.85 10.81C5.85 11.79 5.28 13.19 5.29 14.58C5.29 15.98 5.87 17.36 6.89 18.34C7.85 19.29 9.19 19.84 10.54 19.85C12.32 19.85 14.1 19.85 15.88 19.85C15.88 21.62 15.88 23.37 15.88 25.14C14.13 25.15 12.38 25.14 10.63 25.14C9.43 25.14 8.22 24.95 7.08 24.54C4.57 23.67 2.42 21.81 1.19 19.45C0.49 18.12 0.11 16.63 0 15.14L0 14.26C0.07 11.47 1.29 8.74 3.33 6.84Z" fill="#F6F6F7" fill-opacity="1.000000" fill-rule="nonzero"/>
		<path d="M18.52 15.88C21.17 15.88 23.81 15.88 26.46 15.88C26.46 20.29 26.46 24.7 26.46 29.11C23.81 29.11 21.17 29.11 18.52 29.11C18.52 24.7 18.52 20.29 18.52 15.88Z" fill="#32CAFD" fill-opacity="1.000000" fill-rule="nonzero"/>
		<path d="M29.11 19.85C30.86 19.84 32.61 19.85 34.35 19.85C35.61 19.85 36.87 20.06 38.04 20.49C40.57 21.41 42.69 23.32 43.88 25.72C44.55 27.05 44.91 28.52 44.99 30.01L44.99 30.9C44.89 32.66 44.39 34.4 43.46 35.92C41.92 38.51 39.19 40.38 36.21 40.86C35.13 41.07 34.04 41.01 32.95 41.02C25.49 41.02 18.03 41.02 10.58 41.02C10.58 39.26 10.58 37.5 10.58 35.73C18.12 35.73 25.66 35.73 33.21 35.73C34.1 35.72 35 35.79 35.87 35.52C37.57 35.05 38.96 33.67 39.47 31.98C39.92 30.52 39.7 28.86 38.86 27.58C38.1 26.37 36.83 25.51 35.42 25.24C34.82 25.11 34.18 25.14 33.57 25.14C32.08 25.14 30.6 25.14 29.11 25.14C29.11 23.37 29.11 21.62 29.11 19.85Z" fill="#F6F6F7" fill-opacity="1.000000" fill-rule="nonzero"/>
		<path d="M0 31.76C2.64 31.76 5.29 31.76 7.94 31.77C7.94 36.18 7.94 40.59 7.94 45L0 45L0 31.76Z" fill="#32CAFD" fill-opacity="1.000000" fill-rule="nonzero"/>
	</g>
</svg>
